<mxfile host="Electron" agent="Mozilla/5.0 (Windows NT 10.0; Win64; x64) AppleWebKit/537.36 (KHTML, like Gecko) draw.io/25.0.2 Chrome/128.0.6613.186 Electron/32.2.5 Safari/537.36" version="25.0.2">
  <diagram name="Page-1" id="13e1069c-82ec-6db2-03f1-153e76fe0fe0">
    <mxGraphModel dx="1014" dy="939" grid="1" gridSize="10" guides="1" tooltips="1" connect="1" arrows="1" fold="1" page="1" pageScale="1" pageWidth="1100" pageHeight="850" background="none" math="0" shadow="0">
      <root>
        <mxCell id="0" />
        <mxCell id="1" parent="0" />
        <mxCell id="bp0D_xibq0nxZEr6WwdS-58" value="" style="rounded=0;whiteSpace=wrap;html=1;" vertex="1" parent="1">
          <mxGeometry x="60" y="80" width="500" height="680" as="geometry" />
        </mxCell>
        <mxCell id="7baba1c4bc27f4b0-2" value="&lt;b&gt;GPU&lt;/b&gt;" style="shape=umlLifeline;perimeter=lifelinePerimeter;whiteSpace=wrap;html=1;container=0;collapsible=0;recursiveResize=0;outlineConnect=0;rounded=1;shadow=0;comic=0;labelBackgroundColor=none;strokeWidth=1;fontFamily=Verdana;fontSize=12;align=center;" parent="1" vertex="1">
          <mxGeometry x="220" y="120" width="100" height="620" as="geometry" />
        </mxCell>
        <mxCell id="7baba1c4bc27f4b0-3" value="&lt;b&gt;Display Controller&lt;/b&gt;" style="shape=umlLifeline;perimeter=lifelinePerimeter;whiteSpace=wrap;html=1;container=0;collapsible=0;recursiveResize=0;outlineConnect=0;rounded=1;shadow=0;comic=0;labelBackgroundColor=none;strokeWidth=1;fontFamily=Verdana;fontSize=12;align=center;" parent="1" vertex="1">
          <mxGeometry x="380" y="120" width="100" height="620" as="geometry" />
        </mxCell>
        <mxCell id="7baba1c4bc27f4b0-8" value="&lt;b&gt;CPU&lt;/b&gt;" style="shape=umlLifeline;perimeter=lifelinePerimeter;whiteSpace=wrap;html=1;container=0;collapsible=0;recursiveResize=0;outlineConnect=0;rounded=1;shadow=0;comic=0;labelBackgroundColor=none;strokeWidth=1;fontFamily=Verdana;fontSize=12;align=center;" parent="1" vertex="1">
          <mxGeometry x="80" y="120" width="100" height="620" as="geometry" />
        </mxCell>
        <mxCell id="7baba1c4bc27f4b0-9" value="" style="html=1;points=[];perimeter=orthogonalPerimeter;rounded=0;shadow=0;comic=0;labelBackgroundColor=none;strokeWidth=1;fontFamily=Verdana;fontSize=12;align=center;" parent="1" vertex="1">
          <mxGeometry x="125" y="180" width="10" height="540" as="geometry" />
        </mxCell>
        <mxCell id="bp0D_xibq0nxZEr6WwdS-2" value="" style="html=1;points=[];perimeter=orthogonalPerimeter;rounded=0;shadow=0;comic=0;labelBackgroundColor=none;strokeWidth=1;fontFamily=Verdana;fontSize=12;align=center;" vertex="1" parent="1">
          <mxGeometry x="130" y="199" width="10" height="61" as="geometry" />
        </mxCell>
        <mxCell id="bp0D_xibq0nxZEr6WwdS-6" value="CreateCL(0)" style="html=1;verticalAlign=middle;endArrow=block;labelBackgroundColor=default;fontFamily=Verdana;fontSize=12;elbow=vertical;edgeStyle=orthogonalEdgeStyle;curved=1;entryX=1;entryY=0.286;entryPerimeter=0;exitX=1.038;exitY=0.345;exitPerimeter=0;labelPosition=center;verticalLabelPosition=middle;align=center;spacing=2;" edge="1" parent="1">
          <mxGeometry relative="1" as="geometry">
            <mxPoint x="135.0033333333335" y="180.00000000000003" as="sourcePoint" />
            <mxPoint x="140.0033333333335" y="218.3333333333334" as="targetPoint" />
            <Array as="points">
              <mxPoint x="189.67000000000002" y="180.00000000000003" />
              <mxPoint x="189.67000000000002" y="218.00000000000003" />
            </Array>
          </mxGeometry>
        </mxCell>
        <mxCell id="bp0D_xibq0nxZEr6WwdS-8" value="BindCL(0)" style="html=1;verticalAlign=bottom;endArrow=block;entryX=0;entryY=0;labelBackgroundColor=none;fontFamily=Verdana;fontSize=12;edgeStyle=elbowEdgeStyle;elbow=vertical;" edge="1" parent="1">
          <mxGeometry relative="1" as="geometry">
            <mxPoint x="135" y="260" as="sourcePoint" />
            <mxPoint x="265" y="259.9999999999999" as="targetPoint" />
          </mxGeometry>
        </mxCell>
        <mxCell id="bp0D_xibq0nxZEr6WwdS-10" value="BindFB(0)" style="html=1;verticalAlign=bottom;endArrow=block;entryX=0;entryY=0;labelBackgroundColor=none;fontFamily=Verdana;fontSize=12;edgeStyle=elbowEdgeStyle;elbow=vertical;" edge="1" parent="1">
          <mxGeometry relative="1" as="geometry">
            <mxPoint x="135" y="280" as="sourcePoint" />
            <mxPoint x="265" y="279.9999999999999" as="targetPoint" />
          </mxGeometry>
        </mxCell>
        <mxCell id="bp0D_xibq0nxZEr6WwdS-12" value="GpuStart" style="html=1;verticalAlign=bottom;endArrow=block;entryX=0;entryY=0;labelBackgroundColor=none;fontFamily=Verdana;fontSize=12;edgeStyle=elbowEdgeStyle;elbow=vertical;" edge="1" parent="1">
          <mxGeometry relative="1" as="geometry">
            <mxPoint x="135" y="300" as="sourcePoint" />
            <mxPoint x="265" y="299.9999999999999" as="targetPoint" />
          </mxGeometry>
        </mxCell>
        <mxCell id="7baba1c4bc27f4b0-21" value="DrawDone" style="html=1;verticalAlign=bottom;endArrow=open;dashed=1;endSize=8;labelBackgroundColor=none;fontFamily=Verdana;fontSize=12;edgeStyle=elbowEdgeStyle;elbow=vertical;" parent="1" edge="1">
          <mxGeometry relative="1" as="geometry">
            <mxPoint x="135.00000000000023" y="420" as="targetPoint" />
            <Array as="points">
              <mxPoint x="210" y="420" />
              <mxPoint x="240" y="420" />
            </Array>
            <mxPoint x="264.9999999999998" y="420" as="sourcePoint" />
          </mxGeometry>
        </mxCell>
        <mxCell id="bp0D_xibq0nxZEr6WwdS-23" value="" style="html=1;points=[];perimeter=orthogonalPerimeter;rounded=0;shadow=0;comic=0;labelBackgroundColor=none;strokeWidth=1;fontFamily=Verdana;fontSize=12;align=center;" vertex="1" parent="1">
          <mxGeometry x="130" y="340" width="10" height="60" as="geometry" />
        </mxCell>
        <mxCell id="bp0D_xibq0nxZEr6WwdS-37" value="CreateCL(1)" style="html=1;verticalAlign=middle;endArrow=block;labelBackgroundColor=default;fontFamily=Verdana;fontSize=12;elbow=vertical;edgeStyle=orthogonalEdgeStyle;curved=1;entryX=1;entryY=0.286;entryPerimeter=0;exitX=1.038;exitY=0.345;exitPerimeter=0;labelPosition=center;verticalLabelPosition=middle;align=center;spacing=2;" edge="1" parent="1">
          <mxGeometry relative="1" as="geometry">
            <mxPoint x="135.0033333333335" y="320.03000000000003" as="sourcePoint" />
            <mxPoint x="140.0033333333335" y="358.3633333333334" as="targetPoint" />
            <Array as="points">
              <mxPoint x="189.67000000000002" y="320.03000000000003" />
              <mxPoint x="189.67000000000002" y="358.03000000000003" />
            </Array>
          </mxGeometry>
        </mxCell>
        <mxCell id="bp0D_xibq0nxZEr6WwdS-51" value="" style="html=1;points=[];perimeter=orthogonalPerimeter;rounded=0;shadow=0;comic=0;labelBackgroundColor=none;strokeWidth=1;fontFamily=Verdana;fontSize=12;align=center;" vertex="1" parent="1">
          <mxGeometry x="130" y="560" width="10" height="60" as="geometry" />
        </mxCell>
        <mxCell id="bp0D_xibq0nxZEr6WwdS-54" value="ChangeFB(1)" style="html=1;verticalAlign=bottom;endArrow=block;entryX=-0.035;entryY=0.908;labelBackgroundColor=default;fontFamily=Verdana;fontSize=12;edgeStyle=elbowEdgeStyle;elbow=vertical;entryDx=0;entryDy=0;entryPerimeter=0;" edge="1" parent="1" target="bp0D_xibq0nxZEr6WwdS-18">
          <mxGeometry relative="1" as="geometry">
            <mxPoint x="135" y="670.08" as="sourcePoint" />
            <mxPoint x="430" y="670.0799999999999" as="targetPoint" />
          </mxGeometry>
        </mxCell>
        <mxCell id="bp0D_xibq0nxZEr6WwdS-7" value="" style="html=1;points=[];perimeter=orthogonalPerimeter;rounded=0;shadow=0;comic=0;labelBackgroundColor=none;strokeWidth=1;fontFamily=Verdana;fontSize=12;align=center;" vertex="1" parent="1">
          <mxGeometry x="265" y="260" width="10" height="11" as="geometry" />
        </mxCell>
        <mxCell id="bp0D_xibq0nxZEr6WwdS-9" value="" style="html=1;points=[];perimeter=orthogonalPerimeter;rounded=0;shadow=0;comic=0;labelBackgroundColor=none;strokeWidth=1;fontFamily=Verdana;fontSize=12;align=center;" vertex="1" parent="1">
          <mxGeometry x="265" y="280" width="10" height="10" as="geometry" />
        </mxCell>
        <mxCell id="bp0D_xibq0nxZEr6WwdS-11" value="" style="html=1;points=[];perimeter=orthogonalPerimeter;rounded=0;shadow=0;comic=0;labelBackgroundColor=none;strokeWidth=1;fontFamily=Verdana;fontSize=12;align=center;" vertex="1" parent="1">
          <mxGeometry x="265" y="300" width="10" height="120" as="geometry" />
        </mxCell>
        <mxCell id="bp0D_xibq0nxZEr6WwdS-14" value="" style="html=1;points=[];perimeter=orthogonalPerimeter;rounded=0;shadow=0;comic=0;labelBackgroundColor=none;strokeWidth=1;fontFamily=Verdana;fontSize=12;align=center;" vertex="1" parent="1">
          <mxGeometry x="270" y="320" width="10" height="30" as="geometry" />
        </mxCell>
        <mxCell id="bp0D_xibq0nxZEr6WwdS-15" value="ReadFB(0)" style="html=1;verticalAlign=middle;endArrow=block;labelBackgroundColor=default;fontFamily=Verdana;fontSize=12;elbow=vertical;edgeStyle=orthogonalEdgeStyle;curved=1;entryX=1;entryY=0.286;entryPerimeter=0;exitX=1.038;exitY=0.345;exitPerimeter=0;labelPosition=center;verticalLabelPosition=middle;align=center;spacing=2;" edge="1" parent="1">
          <mxGeometry relative="1" as="geometry">
            <mxPoint x="275.0033333333335" y="300" as="sourcePoint" />
            <mxPoint x="280.0033333333335" y="338.33333333333337" as="targetPoint" />
            <Array as="points">
              <mxPoint x="329.67" y="300" />
              <mxPoint x="329.67" y="338" />
            </Array>
          </mxGeometry>
        </mxCell>
        <mxCell id="bp0D_xibq0nxZEr6WwdS-17" value="" style="html=1;points=[];perimeter=orthogonalPerimeter;rounded=0;shadow=0;comic=0;labelBackgroundColor=none;strokeWidth=1;fontFamily=Verdana;fontSize=12;align=center;" vertex="1" parent="1">
          <mxGeometry x="270" y="370" width="10" height="50" as="geometry" />
        </mxCell>
        <mxCell id="bp0D_xibq0nxZEr6WwdS-16" value="DrawFB(0)" style="html=1;verticalAlign=middle;endArrow=block;labelBackgroundColor=default;fontFamily=Verdana;fontSize=12;elbow=vertical;edgeStyle=orthogonalEdgeStyle;curved=1;entryX=1;entryY=0.286;entryPerimeter=0;exitX=1.038;exitY=0.345;exitPerimeter=0;labelPosition=center;verticalLabelPosition=middle;align=center;spacing=2;" edge="1" parent="1">
          <mxGeometry relative="1" as="geometry">
            <mxPoint x="275.0033333333335" y="350.02000000000004" as="sourcePoint" />
            <mxPoint x="280.0033333333335" y="388.3533333333334" as="targetPoint" />
            <Array as="points">
              <mxPoint x="329.67" y="350.02000000000004" />
              <mxPoint x="329.67" y="388.02000000000004" />
            </Array>
          </mxGeometry>
        </mxCell>
        <mxCell id="bp0D_xibq0nxZEr6WwdS-42" value="ReadFB(1)" style="html=1;verticalAlign=middle;endArrow=block;labelBackgroundColor=default;fontFamily=Verdana;fontSize=12;elbow=vertical;edgeStyle=orthogonalEdgeStyle;curved=1;entryX=1;entryY=0.286;entryPerimeter=0;exitX=1.038;exitY=0.345;exitPerimeter=0;labelPosition=center;verticalLabelPosition=middle;align=center;spacing=2;" edge="1" parent="1">
          <mxGeometry relative="1" as="geometry">
            <mxPoint x="275.00333333333356" y="520.13" as="sourcePoint" />
            <mxPoint x="280.00333333333356" y="558.4633333333334" as="targetPoint" />
            <Array as="points">
              <mxPoint x="329.6700000000001" y="520.13" />
              <mxPoint x="329.6700000000001" y="558.13" />
            </Array>
          </mxGeometry>
        </mxCell>
        <mxCell id="bp0D_xibq0nxZEr6WwdS-44" value="DrawFB(1)" style="html=1;verticalAlign=middle;endArrow=block;labelBackgroundColor=default;fontFamily=Verdana;fontSize=12;elbow=vertical;edgeStyle=orthogonalEdgeStyle;curved=1;entryX=1;entryY=0.286;entryPerimeter=0;exitX=1.038;exitY=0.345;exitPerimeter=0;labelPosition=center;verticalLabelPosition=middle;align=center;spacing=2;" edge="1" parent="1">
          <mxGeometry relative="1" as="geometry">
            <mxPoint x="275.00333333333356" y="570.1500000000001" as="sourcePoint" />
            <mxPoint x="280.00333333333356" y="608.4833333333335" as="targetPoint" />
            <Array as="points">
              <mxPoint x="329.6700000000001" y="570.1500000000001" />
              <mxPoint x="329.6700000000001" y="608.1500000000001" />
            </Array>
          </mxGeometry>
        </mxCell>
        <mxCell id="bp0D_xibq0nxZEr6WwdS-47" value="BindCL(1)" style="html=1;verticalAlign=bottom;endArrow=block;entryX=0;entryY=0;labelBackgroundColor=none;fontFamily=Verdana;fontSize=12;edgeStyle=elbowEdgeStyle;elbow=vertical;" edge="1" parent="1">
          <mxGeometry relative="1" as="geometry">
            <mxPoint x="135" y="480.13" as="sourcePoint" />
            <mxPoint x="265" y="480.1299999999999" as="targetPoint" />
          </mxGeometry>
        </mxCell>
        <mxCell id="bp0D_xibq0nxZEr6WwdS-48" value="BindFB(1)" style="html=1;verticalAlign=bottom;endArrow=block;entryX=0;entryY=0;labelBackgroundColor=none;fontFamily=Verdana;fontSize=12;edgeStyle=elbowEdgeStyle;elbow=vertical;" edge="1" parent="1">
          <mxGeometry relative="1" as="geometry">
            <mxPoint x="135" y="500.13" as="sourcePoint" />
            <mxPoint x="265" y="500.1299999999999" as="targetPoint" />
          </mxGeometry>
        </mxCell>
        <mxCell id="bp0D_xibq0nxZEr6WwdS-49" value="GpuStart" style="html=1;verticalAlign=bottom;endArrow=block;entryX=0;entryY=0;labelBackgroundColor=none;fontFamily=Verdana;fontSize=12;edgeStyle=elbowEdgeStyle;elbow=vertical;" edge="1" parent="1">
          <mxGeometry relative="1" as="geometry">
            <mxPoint x="135" y="520.13" as="sourcePoint" />
            <mxPoint x="265" y="520.1299999999999" as="targetPoint" />
          </mxGeometry>
        </mxCell>
        <mxCell id="bp0D_xibq0nxZEr6WwdS-50" value="DrawDone" style="html=1;verticalAlign=bottom;endArrow=open;dashed=1;endSize=8;labelBackgroundColor=none;fontFamily=Verdana;fontSize=12;edgeStyle=elbowEdgeStyle;elbow=vertical;" edge="1" parent="1">
          <mxGeometry relative="1" as="geometry">
            <mxPoint x="135.00000000000023" y="640.13" as="targetPoint" />
            <Array as="points">
              <mxPoint x="210" y="640.13" />
              <mxPoint x="240" y="640.13" />
            </Array>
            <mxPoint x="264.9999999999998" y="640.13" as="sourcePoint" />
          </mxGeometry>
        </mxCell>
        <mxCell id="bp0D_xibq0nxZEr6WwdS-52" value="CreateCL(0)" style="html=1;verticalAlign=middle;endArrow=block;labelBackgroundColor=default;fontFamily=Verdana;fontSize=12;elbow=vertical;edgeStyle=orthogonalEdgeStyle;curved=1;entryX=1;entryY=0.286;entryPerimeter=0;exitX=1.038;exitY=0.345;exitPerimeter=0;labelPosition=center;verticalLabelPosition=middle;align=center;spacing=2;" edge="1" parent="1">
          <mxGeometry relative="1" as="geometry">
            <mxPoint x="135.00333333333356" y="540.1600000000001" as="sourcePoint" />
            <mxPoint x="140.00333333333356" y="578.4933333333335" as="targetPoint" />
            <Array as="points">
              <mxPoint x="189.67000000000007" y="540.1600000000001" />
              <mxPoint x="189.67000000000007" y="578.1600000000001" />
            </Array>
          </mxGeometry>
        </mxCell>
        <mxCell id="bp0D_xibq0nxZEr6WwdS-38" value="" style="html=1;points=[];perimeter=orthogonalPerimeter;rounded=0;shadow=0;comic=0;labelBackgroundColor=none;strokeWidth=1;fontFamily=Verdana;fontSize=12;align=center;" vertex="1" parent="1">
          <mxGeometry x="265" y="480.13" width="10" height="11" as="geometry" />
        </mxCell>
        <mxCell id="bp0D_xibq0nxZEr6WwdS-39" value="" style="html=1;points=[];perimeter=orthogonalPerimeter;rounded=0;shadow=0;comic=0;labelBackgroundColor=none;strokeWidth=1;fontFamily=Verdana;fontSize=12;align=center;" vertex="1" parent="1">
          <mxGeometry x="265" y="500.13" width="10" height="10" as="geometry" />
        </mxCell>
        <mxCell id="bp0D_xibq0nxZEr6WwdS-40" value="" style="html=1;points=[];perimeter=orthogonalPerimeter;rounded=0;shadow=0;comic=0;labelBackgroundColor=none;strokeWidth=1;fontFamily=Verdana;fontSize=12;align=center;" vertex="1" parent="1">
          <mxGeometry x="265" y="520.13" width="10" height="120" as="geometry" />
        </mxCell>
        <mxCell id="bp0D_xibq0nxZEr6WwdS-41" value="" style="html=1;points=[];perimeter=orthogonalPerimeter;rounded=0;shadow=0;comic=0;labelBackgroundColor=none;strokeWidth=1;fontFamily=Verdana;fontSize=12;align=center;" vertex="1" parent="1">
          <mxGeometry x="270" y="540.13" width="10" height="30" as="geometry" />
        </mxCell>
        <mxCell id="bp0D_xibq0nxZEr6WwdS-43" value="" style="html=1;points=[];perimeter=orthogonalPerimeter;rounded=0;shadow=0;comic=0;labelBackgroundColor=none;strokeWidth=1;fontFamily=Verdana;fontSize=12;align=center;" vertex="1" parent="1">
          <mxGeometry x="270" y="590.13" width="10" height="50" as="geometry" />
        </mxCell>
        <mxCell id="bp0D_xibq0nxZEr6WwdS-18" value="" style="html=1;points=[];perimeter=orthogonalPerimeter;rounded=0;shadow=0;comic=0;labelBackgroundColor=none;strokeWidth=1;fontFamily=Verdana;fontSize=12;align=center;" vertex="1" parent="1">
          <mxGeometry x="425" y="180" width="10" height="540" as="geometry" />
        </mxCell>
        <mxCell id="bp0D_xibq0nxZEr6WwdS-21" value="" style="html=1;points=[];perimeter=orthogonalPerimeter;rounded=0;shadow=0;comic=0;labelBackgroundColor=none;strokeWidth=1;fontFamily=Verdana;fontSize=12;align=center;" vertex="1" parent="1">
          <mxGeometry x="430" y="470" width="10" height="200" as="geometry" />
        </mxCell>
        <mxCell id="bp0D_xibq0nxZEr6WwdS-20" value="DisplayFB(0)" style="html=1;verticalAlign=middle;endArrow=block;labelBackgroundColor=default;fontFamily=Verdana;fontSize=12;elbow=vertical;edgeStyle=orthogonalEdgeStyle;curved=1;entryX=1;entryY=0.286;entryPerimeter=0;exitX=1.038;exitY=0.345;exitPerimeter=0;labelPosition=center;verticalLabelPosition=middle;align=center;spacing=2;" edge="1" parent="1">
          <mxGeometry relative="1" as="geometry">
            <mxPoint x="435.0033333333335" y="449.99999999999994" as="sourcePoint" />
            <mxPoint x="440.0033333333335" y="488.3333333333333" as="targetPoint" />
            <Array as="points">
              <mxPoint x="489.6700000000001" y="449.99999999999994" />
              <mxPoint x="489.6700000000001" y="487.99999999999994" />
            </Array>
          </mxGeometry>
        </mxCell>
        <mxCell id="bp0D_xibq0nxZEr6WwdS-53" value="ChangeFB(0)" style="html=1;verticalAlign=bottom;endArrow=block;entryX=0;entryY=0;labelBackgroundColor=default;fontFamily=Verdana;fontSize=12;edgeStyle=elbowEdgeStyle;elbow=vertical;exitX=1.062;exitY=0.5;exitDx=0;exitDy=0;exitPerimeter=0;" edge="1" parent="1" source="7baba1c4bc27f4b0-9">
          <mxGeometry relative="1" as="geometry">
            <mxPoint x="140" y="450" as="sourcePoint" />
            <mxPoint x="425" y="449.9999999999999" as="targetPoint" />
          </mxGeometry>
        </mxCell>
        <mxCell id="bp0D_xibq0nxZEr6WwdS-56" value="" style="html=1;points=[];perimeter=orthogonalPerimeter;rounded=0;shadow=0;comic=0;labelBackgroundColor=none;strokeWidth=1;fontFamily=Verdana;fontSize=12;align=center;" vertex="1" parent="1">
          <mxGeometry x="430" y="690" width="10" height="30" as="geometry" />
        </mxCell>
        <mxCell id="bp0D_xibq0nxZEr6WwdS-57" value="DisplayFB(1)" style="html=1;verticalAlign=middle;endArrow=block;labelBackgroundColor=default;fontFamily=Verdana;fontSize=12;elbow=vertical;edgeStyle=orthogonalEdgeStyle;curved=1;entryX=1;entryY=0.286;entryPerimeter=0;exitX=1.038;exitY=0.345;exitPerimeter=0;labelPosition=center;verticalLabelPosition=middle;align=center;spacing=2;" edge="1" parent="1">
          <mxGeometry relative="1" as="geometry">
            <mxPoint x="435.0033333333335" y="670" as="sourcePoint" />
            <mxPoint x="440.0033333333335" y="708.3333333333333" as="targetPoint" />
            <Array as="points">
              <mxPoint x="489.6700000000001" y="670" />
              <mxPoint x="489.6700000000001" y="708" />
            </Array>
          </mxGeometry>
        </mxCell>
        <mxCell id="bp0D_xibq0nxZEr6WwdS-59" value="Sequence Diagram" style="rounded=1;whiteSpace=wrap;html=1;" vertex="1" parent="1">
          <mxGeometry x="60" y="80" width="120" height="30" as="geometry" />
        </mxCell>
      </root>
    </mxGraphModel>
  </diagram>
</mxfile>
